<svg width="22" height="22" viewBox="0 0 22 22" fill="none" xmlns="http://www.w3.org/2000/svg">
<path d="M20.9071 2.90503C20.9071 1.80503 20.0071 0.905029 18.9071 0.905029H2.9071C1.8071 0.905029 0.917104 1.80503 0.917104 2.90503L0.907104 20.905L4.9071 16.905H13.9071V9.90503C13.9071 9.35503 14.3571 8.90503 14.9071 8.90503H20.9071V2.90503Z" fill="#615358"/>
<path d="M20.5971 14.905H19.2071L20.6071 11.605C20.7471 11.275 20.5071 10.905 20.1471 10.905H16.4071C16.1271 10.905 15.9071 11.125 15.9071 11.405V16.405C15.9071 16.685 16.1271 16.905 16.4071 16.905H17.9071V20.845C17.9071 21.105 18.2671 21.195 18.3771 20.955L21.0371 15.625C21.2071 15.295 20.9671 14.905 20.5971 14.905Z" fill="#615358"/>
</svg>
