<svg width="14" height="14" viewBox="0 0 14 14" fill="none" xmlns="http://www.w3.org/2000/svg">
<path d="M10 0.883301C8.84001 0.883301 7.72668 1.4233 7.00001 2.27663C6.27334 1.4233 5.16001 0.883301 4.00001 0.883301C1.94668 0.883301 0.333344 2.49663 0.333344 4.54997C0.333344 7.06997 2.60001 9.1233 6.03334 12.2433L7.00001 13.1166L7.96668 12.2366C11.4 9.1233 13.6667 7.06997 13.6667 4.54997C13.6667 2.49663 12.0533 0.883301 10 0.883301ZM7.06668 11.25L7.00001 11.3166L6.93334 11.25C3.76001 8.37663 1.66668 6.47663 1.66668 4.54997C1.66668 3.21663 2.66668 2.21663 4.00001 2.21663C5.02668 2.21663 6.02668 2.87663 6.38001 3.78997H7.62668C7.97334 2.87663 8.97334 2.21663 10 2.21663C11.3333 2.21663 12.3333 3.21663 12.3333 4.54997C12.3333 6.47663 10.24 8.37663 7.06668 11.25Z" fill="black"/>
</svg>
