<svg width="16" height="16" viewBox="0 0 16 16" fill="none" xmlns="http://www.w3.org/2000/svg">
<path d="M8.00004 1.33325C4.33337 1.33325 1.33337 4.33325 1.33337 7.99992C1.33337 11.6666 4.33337 14.6666 8.00004 14.6666C11.6667 14.6666 14.6667 11.6666 14.6667 7.99992C14.6667 4.33325 11.6667 1.33325 8.00004 1.33325ZM8.00004 13.3333C5.06004 13.3333 2.66671 10.9399 2.66671 7.99992C2.66671 5.05992 5.06004 2.66659 8.00004 2.66659C10.94 2.66659 13.3334 5.05992 13.3334 7.99992C13.3334 10.9399 10.94 13.3333 8.00004 13.3333ZM8.33337 4.66659H7.33337V8.66659L10.8 10.7999L11.3334 9.93325L8.33337 8.13325V4.66659Z" fill="#CEA700"/>
</svg>
